<svg width="28" height="16" viewBox="0 0 28 16" fill="none" xmlns="http://www.w3.org/2000/svg">
<path fill-rule="evenodd" clip-rule="evenodd" d="M9.15732 1.1116C9.35509 0.668386 9.66932 0.393172 10.0781 0.291088C10.5735 0.167398 11.0853 0.082069 11.5941 0.0497502C12.789 -0.0261487 13.9863 -0.0451921 15.1675 0.213999C15.8217 0.357557 16.1485 0.71279 16.1599 1.40183C16.1783 2.52182 16.139 3.64272 16.1352 4.76326C16.1329 5.43701 16.1513 6.11086 16.1607 6.78461C16.161 6.8075 16.1627 6.83057 16.1666 6.853C16.2356 7.24348 16.3223 7.66344 16.7214 7.80682C17.1016 7.94332 17.3713 7.62352 17.6046 7.36827C18.6997 6.17055 19.4946 4.76766 20.193 3.30562C20.4816 2.70136 20.7267 2.07503 20.9836 1.45521C21.2147 0.897089 21.4709 0.711508 22.0551 0.707205C23.5094 0.696493 24.9635 0.686696 26.4178 0.676534C27.5802 0.668386 27.8647 1.08331 27.412 2.1795C26.8896 3.44432 26.0718 4.52321 25.2779 5.61417C24.7239 6.37554 24.1444 7.11787 23.6025 7.88793C22.8573 8.94704 22.9016 9.32681 23.7976 10.2569C24.7467 11.2419 25.7095 12.2143 26.6278 13.2286C26.9564 13.5916 27.2012 14.0453 27.4333 14.4856C27.7711 15.1263 27.5565 15.6235 26.8748 15.8396C26.6648 15.9062 26.4369 15.9375 26.2163 15.942C24.9525 15.9683 23.6886 15.9885 22.4246 15.9969C21.6542 16.0021 21.0119 15.6458 20.4739 15.128C19.905 14.5804 19.3955 13.9689 18.8516 13.3935C18.5801 13.1064 18.3096 12.8122 18.0041 12.566C17.4002 12.0795 16.8403 12.1924 16.5519 12.9241C16.3432 13.4534 16.2247 14.0421 16.1833 14.6133C16.1072 15.6609 15.8112 15.9869 14.7823 15.9968C13.5511 16.0086 12.3262 16.0079 11.129 15.6311C9.02626 14.9692 7.35999 13.678 5.98057 11.9622C3.97975 9.47348 2.46801 6.6763 1.07632 3.80478C0.759223 3.15053 0.459489 2.48703 0.169334 1.81969C-0.113837 1.16809 0.110784 0.785118 0.804523 0.766898C2.05682 0.733939 3.30983 0.726706 4.56248 0.713339C5.24888 0.706015 5.69821 1.00302 5.97117 1.68785C6.71111 3.54504 7.64147 5.30215 8.82733 6.90628C9.04049 7.19468 9.2977 7.46312 9.57837 7.68212C9.99278 8.0054 10.3933 7.88885 10.5632 7.3864C10.7 6.98127 10.8128 6.54583 10.8214 6.12148C10.8438 5.01476 10.8701 3.90027 10.7687 2.80115C10.6678 1.70598 10.3191 1.41254 9.15732 1.1116Z" fill="white" fill-opacity="0.2"/>
</svg>
